<?xml version="1.0" encoding="UTF-8"?><svg id="Calque_1" xmlns="http://www.w3.org/2000/svg" viewBox="0 0 82.76 50.4"><defs><style>.cls-1{fill:#1d1d1b;stroke-width:0px;}</style></defs><path class="cls-1" d="M8.76,1.16l11.13,15.26c2.91,3.99,8.53,3.99,11.44,0L42.45,1.16C42.99.43,43.81,0,44.68,0h3.71C49.95,0,51.21,1.36,51.21,3.04v44.33c0,1.68-1.27,3.04-2.83,3.04h-2.26c-1.56,0-2.83-1.36-2.83-3.04v-22.79c0-2.59-2.83-3.99-4.66-2.31l-5.84,5.34c-2.01,1.84-4.56,2.85-7.2,2.85h0c-2.64,0-5.19-1.01-7.2-2.85l-5.84-5.34c-1.84-1.68-4.66-.28-4.66,2.31v22.79c0,1.68-1.27,3.04-2.83,3.04h-2.26c-1.56,0-2.83-1.36-2.83-3.04V3.04C0,1.36,1.27,0,2.83,0h3.71C7.4,0,8.22.43,8.76,1.16Z"/><rect class="cls-1" x="53.75" y="20.52" width="20.74" height="7.49" rx="2.36" ry="2.36"/><rect class="cls-1" x="53.75" width="27.79" height="7.49" rx="2.36" ry="2.36"/><rect class="cls-1" x="53.75" y="42.92" width="29.01" height="7.49" rx="2.36" ry="2.36"/></svg>